<mxfile host="app.diagrams.net" modified="2020-10-27T13:13:45.776Z" agent="5.0 (Windows)" etag="EJIBB1hxvW3L_LfGQZgF" version="13.8.3" type="github">
  <diagram id="lRqCYPVZeoJ31mdwT-Ft" name="Page-1">
    <mxGraphModel dx="1038" dy="547" grid="1" gridSize="10" guides="1" tooltips="1" connect="1" arrows="1" fold="1" page="1" pageScale="1" pageWidth="827" pageHeight="1169" math="0" shadow="0">
      <root>
        <mxCell id="0" />
        <mxCell id="1" parent="0" />
        <mxCell id="QyqUiypQrzmye2LstvTJ-1" value="&lt;table style=&quot;width: 100% ; height: 100% ; border-collapse: collapse&quot; width=&quot;100%&quot; border=&quot;1&quot;&gt;&lt;tbody&gt;&lt;tr&gt;&lt;td align=&quot;center&quot;&gt;a1&lt;br&gt;&lt;/td&gt;&lt;td align=&quot;center&quot;&gt;1&lt;br&gt;&lt;/td&gt;&lt;td align=&quot;center&quot;&gt;...&lt;br&gt;&lt;/td&gt;&lt;/tr&gt;&lt;tr&gt;&lt;td align=&quot;center&quot;&gt;ai&lt;br&gt;&lt;/td&gt;&lt;td align=&quot;center&quot;&gt;0&lt;br&gt;&lt;/td&gt;&lt;td align=&quot;center&quot;&gt;...&lt;br&gt;&lt;/td&gt;&lt;/tr&gt;&lt;tr&gt;&lt;td align=&quot;center&quot;&gt;an&lt;br&gt;&lt;/td&gt;&lt;td align=&quot;center&quot;&gt;0&lt;br&gt;&lt;/td&gt;&lt;td align=&quot;center&quot;&gt;...&lt;br&gt;&lt;/td&gt;&lt;/tr&gt;&lt;/tbody&gt;&lt;/table&gt;" style="text;html=1;strokeColor=none;fillColor=none;overflow=fill;" vertex="1" parent="1">
          <mxGeometry y="110" width="180" height="140" as="geometry" />
        </mxCell>
        <mxCell id="QyqUiypQrzmye2LstvTJ-2" value="&lt;table style=&quot;width: 100% ; height: 100% ; border-collapse: collapse&quot; width=&quot;100%&quot; border=&quot;1&quot;&gt;&lt;tbody&gt;&lt;tr&gt;&lt;td align=&quot;center&quot;&gt;0&lt;br&gt;&lt;/td&gt;&lt;td align=&quot;center&quot;&gt;...&lt;br&gt;&lt;/td&gt;&lt;td align=&quot;center&quot;&gt;1&lt;br&gt;&lt;/td&gt;&lt;/tr&gt;&lt;tr&gt;&lt;td align=&quot;center&quot;&gt;1&lt;br&gt;&lt;/td&gt;&lt;td align=&quot;center&quot;&gt;...&lt;br&gt;&lt;/td&gt;&lt;td align=&quot;center&quot;&gt;0&lt;br&gt;&lt;/td&gt;&lt;/tr&gt;&lt;tr&gt;&lt;td align=&quot;center&quot;&gt;0&lt;br&gt;&lt;/td&gt;&lt;td align=&quot;center&quot;&gt;...&lt;br&gt;&lt;/td&gt;&lt;td align=&quot;center&quot;&gt;1&lt;br&gt;&lt;/td&gt;&lt;/tr&gt;&lt;/tbody&gt;&lt;/table&gt;" style="text;html=1;strokeColor=none;fillColor=none;overflow=fill;" vertex="1" parent="1">
          <mxGeometry x="180" y="110" width="180" height="140" as="geometry" />
        </mxCell>
        <mxCell id="QyqUiypQrzmye2LstvTJ-3" value="" style="endArrow=classic;html=1;" edge="1" parent="1">
          <mxGeometry width="50" height="50" relative="1" as="geometry">
            <mxPoint x="360" y="140" as="sourcePoint" />
            <mxPoint x="440" y="140" as="targetPoint" />
            <Array as="points" />
          </mxGeometry>
        </mxCell>
        <mxCell id="QyqUiypQrzmye2LstvTJ-4" value="" style="endArrow=classic;html=1;" edge="1" parent="1">
          <mxGeometry width="50" height="50" relative="1" as="geometry">
            <mxPoint x="360" y="179.5" as="sourcePoint" />
            <mxPoint x="440" y="179.5" as="targetPoint" />
            <Array as="points" />
          </mxGeometry>
        </mxCell>
        <mxCell id="QyqUiypQrzmye2LstvTJ-5" value="" style="endArrow=classic;html=1;" edge="1" parent="1">
          <mxGeometry width="50" height="50" relative="1" as="geometry">
            <mxPoint x="360" y="220" as="sourcePoint" />
            <mxPoint x="440" y="220" as="targetPoint" />
            <Array as="points" />
          </mxGeometry>
        </mxCell>
        <mxCell id="QyqUiypQrzmye2LstvTJ-6" value="" style="ellipse;whiteSpace=wrap;html=1;aspect=fixed;" vertex="1" parent="1">
          <mxGeometry x="450" y="130" width="20" height="20" as="geometry" />
        </mxCell>
        <mxCell id="QyqUiypQrzmye2LstvTJ-9" value="" style="ellipse;whiteSpace=wrap;html=1;aspect=fixed;" vertex="1" parent="1">
          <mxGeometry x="450" y="170" width="20" height="20" as="geometry" />
        </mxCell>
        <mxCell id="QyqUiypQrzmye2LstvTJ-10" value="" style="ellipse;whiteSpace=wrap;html=1;aspect=fixed;" vertex="1" parent="1">
          <mxGeometry x="450" y="210" width="20" height="20" as="geometry" />
        </mxCell>
        <mxCell id="QyqUiypQrzmye2LstvTJ-11" value="hex1" style="text;html=1;strokeColor=none;fillColor=none;align=center;verticalAlign=middle;whiteSpace=wrap;rounded=0;" vertex="1" parent="1">
          <mxGeometry x="470" y="130" width="40" height="20" as="geometry" />
        </mxCell>
        <mxCell id="QyqUiypQrzmye2LstvTJ-13" value="hexn" style="text;html=1;strokeColor=none;fillColor=none;align=center;verticalAlign=middle;whiteSpace=wrap;rounded=0;" vertex="1" parent="1">
          <mxGeometry x="470" y="210" width="40" height="20" as="geometry" />
        </mxCell>
        <mxCell id="QyqUiypQrzmye2LstvTJ-15" value="hexi" style="text;html=1;strokeColor=none;fillColor=none;align=center;verticalAlign=middle;whiteSpace=wrap;rounded=0;" vertex="1" parent="1">
          <mxGeometry x="470" y="170" width="40" height="20" as="geometry" />
        </mxCell>
        <mxCell id="QyqUiypQrzmye2LstvTJ-47" style="edgeStyle=none;rounded=0;orthogonalLoop=1;jettySize=auto;html=1;entryX=0;entryY=1;entryDx=0;entryDy=0;" edge="1" parent="1" source="QyqUiypQrzmye2LstvTJ-18" target="QyqUiypQrzmye2LstvTJ-33">
          <mxGeometry relative="1" as="geometry" />
        </mxCell>
        <mxCell id="QyqUiypQrzmye2LstvTJ-18" value="" style="ellipse;whiteSpace=wrap;html=1;aspect=fixed;" vertex="1" parent="1">
          <mxGeometry x="150" y="390" width="20" height="20" as="geometry" />
        </mxCell>
        <mxCell id="QyqUiypQrzmye2LstvTJ-48" value="" style="edgeStyle=none;rounded=0;orthogonalLoop=1;jettySize=auto;html=1;" edge="1" parent="1" source="QyqUiypQrzmye2LstvTJ-19" target="QyqUiypQrzmye2LstvTJ-33">
          <mxGeometry relative="1" as="geometry" />
        </mxCell>
        <mxCell id="QyqUiypQrzmye2LstvTJ-19" value="" style="ellipse;whiteSpace=wrap;html=1;aspect=fixed;" vertex="1" parent="1">
          <mxGeometry x="200" y="390" width="20" height="20" as="geometry" />
        </mxCell>
        <mxCell id="QyqUiypQrzmye2LstvTJ-50" style="edgeStyle=none;rounded=0;orthogonalLoop=1;jettySize=auto;html=1;exitX=0;exitY=0;exitDx=0;exitDy=0;" edge="1" parent="1" source="QyqUiypQrzmye2LstvTJ-20" target="QyqUiypQrzmye2LstvTJ-33">
          <mxGeometry relative="1" as="geometry" />
        </mxCell>
        <mxCell id="QyqUiypQrzmye2LstvTJ-20" value="" style="ellipse;whiteSpace=wrap;html=1;aspect=fixed;" vertex="1" parent="1">
          <mxGeometry x="270" y="390" width="20" height="20" as="geometry" />
        </mxCell>
        <mxCell id="QyqUiypQrzmye2LstvTJ-24" value="......" style="text;html=1;strokeColor=none;fillColor=none;align=center;verticalAlign=middle;whiteSpace=wrap;rounded=0;" vertex="1" parent="1">
          <mxGeometry x="200" y="390" width="90" height="20" as="geometry" />
        </mxCell>
        <mxCell id="QyqUiypQrzmye2LstvTJ-33" value="" style="ellipse;whiteSpace=wrap;html=1;aspect=fixed;" vertex="1" parent="1">
          <mxGeometry x="220" y="320" width="20" height="20" as="geometry" />
        </mxCell>
        <mxCell id="QyqUiypQrzmye2LstvTJ-34" value="hex1" style="text;html=1;strokeColor=none;fillColor=none;align=center;verticalAlign=middle;whiteSpace=wrap;rounded=0;" vertex="1" parent="1">
          <mxGeometry x="140" y="410" width="40" height="20" as="geometry" />
        </mxCell>
        <mxCell id="QyqUiypQrzmye2LstvTJ-35" value="hexi" style="text;html=1;strokeColor=none;fillColor=none;align=center;verticalAlign=middle;whiteSpace=wrap;rounded=0;" vertex="1" parent="1">
          <mxGeometry x="190" y="410" width="40" height="20" as="geometry" />
        </mxCell>
        <mxCell id="QyqUiypQrzmye2LstvTJ-36" value="hexn" style="text;html=1;strokeColor=none;fillColor=none;align=center;verticalAlign=middle;whiteSpace=wrap;rounded=0;" vertex="1" parent="1">
          <mxGeometry x="270" y="410" width="40" height="20" as="geometry" />
        </mxCell>
      </root>
    </mxGraphModel>
  </diagram>
</mxfile>
